<mxfile host="app.diagrams.net" modified="2024-06-26T08:40:09.176Z" agent="Mozilla/5.0 (Windows NT 10.0; Win64; x64) AppleWebKit/537.36 (KHTML, like Gecko) Chrome/127.0.0.0 Safari/537.36 Edg/127.0.0.0" etag="Lppt7xBIKBOYr4cS1DuJ" version="24.6.2" type="github">
  <diagram name="第 1 页" id="_UOp_g0qZEWWEiO1d6dB">
    <mxGraphModel dx="1188" dy="-168" grid="1" gridSize="10" guides="1" tooltips="1" connect="1" arrows="1" fold="1" page="1" pageScale="1" pageWidth="1169" pageHeight="827" math="0" shadow="0">
      <root>
        <mxCell id="0" />
        <mxCell id="1" parent="0" />
        <mxCell id="BTRqAr_5ZGRuxJ-iE8oP-1" value="" style="rounded=0;whiteSpace=wrap;html=1;" parent="1" vertex="1">
          <mxGeometry x="300" y="1370" width="1820" height="90" as="geometry" />
        </mxCell>
        <mxCell id="BTRqAr_5ZGRuxJ-iE8oP-7" value="姿势信息&lt;div&gt;指导向量&lt;/div&gt;" style="rounded=0;whiteSpace=wrap;html=1;" parent="1" vertex="1">
          <mxGeometry x="430" y="1385" width="120" height="60" as="geometry" />
        </mxCell>
        <mxCell id="BTRqAr_5ZGRuxJ-iE8oP-9" value="语义信息&lt;div&gt;指导向量&lt;/div&gt;" style="rounded=0;whiteSpace=wrap;html=1;" parent="1" vertex="1">
          <mxGeometry x="550" y="1385" width="120" height="60" as="geometry" />
        </mxCell>
        <mxCell id="BTRqAr_5ZGRuxJ-iE8oP-11" value="边缘信息&lt;div&gt;指导向量&lt;/div&gt;" style="rounded=0;whiteSpace=wrap;html=1;" parent="1" vertex="1">
          <mxGeometry x="790" y="1385" width="120" height="60" as="geometry" />
        </mxCell>
        <mxCell id="BTRqAr_5ZGRuxJ-iE8oP-13" value="&lt;b&gt;表征提示词&lt;/b&gt;" style="rounded=0;whiteSpace=wrap;html=1;" parent="1" vertex="1">
          <mxGeometry x="310" y="1385" width="120" height="60" as="geometry" />
        </mxCell>
        <mxCell id="BTRqAr_5ZGRuxJ-iE8oP-20" value="目标运动轨迹运动&lt;div&gt;指导向量&lt;/div&gt;" style="rounded=0;whiteSpace=wrap;html=1;" parent="1" vertex="1">
          <mxGeometry x="910" y="1385" width="120" height="60" as="geometry" />
        </mxCell>
        <mxCell id="BTRqAr_5ZGRuxJ-iE8oP-21" value="语义级加密信息&lt;div&gt;指导向量&lt;/div&gt;" style="rounded=0;whiteSpace=wrap;html=1;" parent="1" vertex="1">
          <mxGeometry x="1150" y="1385" width="120" height="60" as="geometry" />
        </mxCell>
        <mxCell id="BTRqAr_5ZGRuxJ-iE8oP-22" value="语义超分辨率增强&lt;div&gt;指导向量&lt;/div&gt;" style="rounded=0;whiteSpace=wrap;html=1;" parent="1" vertex="1">
          <mxGeometry x="1390" y="1385" width="120" height="60" as="geometry" />
        </mxCell>
        <mxCell id="BTRqAr_5ZGRuxJ-iE8oP-24" value="可变语言文字&lt;div&gt;指导向量&lt;/div&gt;" style="rounded=0;whiteSpace=wrap;html=1;" parent="1" vertex="1">
          <mxGeometry x="1030" y="1385" width="120" height="60" as="geometry" />
        </mxCell>
        <mxCell id="BTRqAr_5ZGRuxJ-iE8oP-25" value="&lt;div&gt;可变角色语义&lt;/div&gt;&lt;div&gt;指导向量&lt;/div&gt;" style="rounded=0;whiteSpace=wrap;html=1;" parent="1" vertex="1">
          <mxGeometry x="1270" y="1385" width="120" height="60" as="geometry" />
        </mxCell>
        <mxCell id="BTRqAr_5ZGRuxJ-iE8oP-26" value="&lt;div&gt;个性化风格表达&lt;/div&gt;&lt;div&gt;指导向量&lt;/div&gt;" style="rounded=0;whiteSpace=wrap;html=1;" parent="1" vertex="1">
          <mxGeometry x="1510" y="1385" width="120" height="60" as="geometry" />
        </mxCell>
        <mxCell id="BTRqAr_5ZGRuxJ-iE8oP-27" value="&lt;div&gt;低分辨率&lt;/div&gt;&lt;div&gt;特征图&lt;/div&gt;" style="rounded=0;whiteSpace=wrap;html=1;" parent="1" vertex="1">
          <mxGeometry x="1630" y="1385" width="120" height="60" as="geometry" />
        </mxCell>
        <mxCell id="J0mIcsC_Z7fb-HMf94dg-1" value="&lt;font style=&quot;font-size: 18px;&quot;&gt;多嵌入特征语义信息&lt;/font&gt;" style="text;html=1;align=center;verticalAlign=middle;resizable=0;points=[];autosize=1;strokeColor=none;fillColor=none;" parent="1" vertex="1">
          <mxGeometry x="300" y="1270" width="190" height="40" as="geometry" />
        </mxCell>
        <mxCell id="JrEzkU69BGv5I61bbMtg-1" value="运动矢量方向特征图" style="rounded=0;whiteSpace=wrap;html=1;" vertex="1" parent="1">
          <mxGeometry x="670" y="1385" width="120" height="60" as="geometry" />
        </mxCell>
        <mxCell id="JrEzkU69BGv5I61bbMtg-2" value="&lt;div&gt;光流运动估计图&lt;/div&gt;" style="rounded=0;whiteSpace=wrap;html=1;" vertex="1" parent="1">
          <mxGeometry x="1750" y="1385" width="120" height="60" as="geometry" />
        </mxCell>
        <mxCell id="JrEzkU69BGv5I61bbMtg-3" value="&lt;div&gt;语义一致性&lt;/div&gt;&lt;div&gt;控制向量&lt;/div&gt;" style="rounded=0;whiteSpace=wrap;html=1;" vertex="1" parent="1">
          <mxGeometry x="1870" y="1385" width="120" height="60" as="geometry" />
        </mxCell>
        <mxCell id="JrEzkU69BGv5I61bbMtg-4" value="&lt;div&gt;基础控制参数&lt;/div&gt;" style="rounded=0;whiteSpace=wrap;html=1;" vertex="1" parent="1">
          <mxGeometry x="1990" y="1385" width="120" height="60" as="geometry" />
        </mxCell>
      </root>
    </mxGraphModel>
  </diagram>
</mxfile>
